<svg id="Layer_1" height="512" viewBox="0 0 512 512" width="512" xmlns="http://www.w3.org/2000/svg" data-name="Layer 1"><path d="m307.89 383.57h-103.78v-10.17a82.486 82.486 0 0 0 -6.76-32.76 80.209 80.209 0 0 0 -19.33-27.23 115.317 115.317 0 0 1 79.06-200.26c61.88.57 112.6 50.4 114.19 112.27a115.006 115.006 0 0 1 -36.68 87.42 82.77 82.77 0 0 0 -26.7 60.48z" fill="#3090fc"/><path d="m310.84 383.57h-109.68a12.21 12.21 0 0 0 0 24.42h109.68a12.21 12.21 0 1 0 0-24.42z" fill="#b0b5ca"/><path d="m305.84 407.99h-99.68a12.21 12.21 0 0 0 0 24.42h99.68a12.21 12.21 0 1 0 0-24.42z" fill="#ccd3df"/><path d="m300.84 432.41h-89.68a12.21 12.21 0 0 0 0 24.42h89.68a12.21 12.21 0 1 0 0-24.42z" fill="#b0b5ca"/><path d="m295.67 456.83-7.1 29.01h-65.14l-7.1-29.01z" fill="#6d7486"/><path d="m234.11 383.57v-10.17a82.486 82.486 0 0 0 -6.76-32.76 80.209 80.209 0 0 0 -19.33-27.23 115.32 115.32 0 0 1 62.974-199.287 115.317 115.317 0 0 0 -92.974 199.287 80.209 80.209 0 0 1 19.33 27.23 82.486 82.486 0 0 1 6.76 32.76v10.17z" fill="#49bdff"/><path d="m218.95 395.78a12.189 12.189 0 0 1 12.21-12.21h-30a12.21 12.21 0 0 0 0 24.42h30a12.208 12.208 0 0 1 -12.21-12.21z" fill="#ccd3df"/><path d="m223.95 420.2a12.189 12.189 0 0 1 12.21-12.21h-30a12.21 12.21 0 0 0 0 24.42h30a12.208 12.208 0 0 1 -12.21-12.21z" fill="#e7ebf2"/><path d="m228.95 444.62a12.206 12.206 0 0 1 12.21-12.21h-30a12.21 12.21 0 0 0 0 24.42h30a12.208 12.208 0 0 1 -12.21-12.21z" fill="#ccd3df"/><path d="m241.16 456.83h-24.83l7.1 29.01h30l-7.1-29.01z" fill="#b0b5ca"/><g fill="#284268"><path d="m173.963 317.831a73.752 73.752 0 0 1 17.88 25.192 76.038 76.038 0 0 1 6.267 30.377v4.441a18.181 18.181 0 0 0 -7.438 32.8 18.156 18.156 0 0 0 5 24.423 18.188 18.188 0 0 0 15.488 27.766h.461l5.981 24.436a6 6 0 0 0 5.828 4.574h65.14a6 6 0 0 0 5.828-4.574l5.981-24.436h.461a18.172 18.172 0 0 0 15.479-27.753 18.4 18.4 0 0 0 2.414-2.015 18.143 18.143 0 0 0 2.586-22.405 18.466 18.466 0 0 0 2.414-2.014 18.2 18.2 0 0 0 -9.843-30.8v-4.523a77.124 77.124 0 0 1 24.79-56.09 121.375 121.375 0 0 0 -81.545-210.08c-.379 0-.753-.005-1.131-.005a121.318 121.318 0 0 0 -82.041 210.686zm109.9 162.009h-55.724l-4.163-17.01h64.048zm21.377-30.834a6.176 6.176 0 0 1 -4.4 1.824h-89.68a6.21 6.21 0 1 1 0-12.42h89.68a6.211 6.211 0 0 1 4.4 10.6zm11.81-53.226a6.205 6.205 0 0 1 -6.21 6.21h-59.86a6 6 0 0 0 0 12h54.86a6.21 6.21 0 1 1 0 12.42h-99.68a6.21 6.21 0 1 1 0-12.42h18.74a6 6 0 0 0 0-12h-23.74a6.21 6.21 0 1 1 0-12.42h109.68a6.217 6.217 0 0 1 6.21 6.21zm-137.991-244.968a108.564 108.564 0 0 1 76.947-31.667c.339 0 .68 0 1.018.005a109.314 109.314 0 0 1 73.476 189.3 89.2 89.2 0 0 0 -28.61 64.95v4.17h-40.89v-99.37c2.457 3.271 6.042 6.755 12.07 6.755 7.6 0 11.326-5.541 13.789-9.208 2.133-3.173 2.849-3.9 3.831-3.9a6 6 0 0 0 0-12c-7.6 0-11.326 5.542-13.791 9.209-2.13 3.172-2.846 3.9-3.829 3.9s-1.7-.729-3.831-3.9c-2.464-3.667-6.187-9.208-13.789-9.208s-11.319 5.543-13.781 9.211c-2.129 3.17-2.843 3.9-3.819 3.9s-1.7-.729-3.829-3.9c-2.465-3.668-6.189-9.209-13.791-9.209a6 6 0 1 0 0 12c.983 0 1.7.729 3.83 3.9 2.464 3.668 6.188 9.209 13.79 9.209 5.318 0 8.733-2.715 11.15-5.6v98.211h-38.89v-4.17a87.967 87.967 0 0 0 -7.256-35.146 85.668 85.668 0 0 0 -20.776-29.263 109.321 109.321 0 0 1 -3.019-158.179z"/><path d="m256 76.06a6 6 0 0 0 6-6v-43.9a6 6 0 0 0 -12 0v43.9a6 6 0 0 0 6 6z"/><path d="m465.19 229.35h-43.9a6 6 0 0 0 0 12h43.9a6 6 0 0 0 0-12z"/><path d="m96.71 235.35a6 6 0 0 0 -6-6h-43.9a6 6 0 1 0 0 12h43.9a6 6 0 0 0 6-6z"/><path d="m376.09 121.26a5.979 5.979 0 0 0 4.242-1.758l34.26-34.259a6 6 0 1 0 -8.485-8.486l-34.259 34.26a6 6 0 0 0 4.242 10.243z"/><path d="m131.668 119.5a6 6 0 1 0 8.484-8.485l-34.259-34.26a6 6 0 1 0 -8.485 8.486z"/><path d="m164.52 238.65a6 6 0 0 0 6-6 85.956 85.956 0 0 1 50.1-78.013 6 6 0 1 0 -4.99-10.913 97.947 97.947 0 0 0 -57.11 88.926 6 6 0 0 0 6 6z"/><path d="m237.364 148.881a6.007 6.007 0 0 0 1.229-.127 85.949 85.949 0 0 1 10.382-1.5 6 6 0 1 0 -.989-11.959 97.894 97.894 0 0 0 -11.839 1.706 6 6 0 0 0 1.217 11.875z"/></g></svg>